<?xml version="1.0" encoding="UTF-8"?>
<!DOCTYPE svg PUBLIC "-//W3C//DTD SVG 1.1//EN" "http://www.w3.org/Graphics/SVG/1.1/DTD/svg11.dtd">
<svg version="1.1" xmlns="http://www.w3.org/2000/svg" xmlns:xlink="http://www.w3.org/1999/xlink" x="0" y="0" width="100" height="100" viewBox="0, 0, 100, 100">
  <defs>
    <linearGradient id="Gradient_1" gradientUnits="userSpaceOnUse" x1="51.974" y1="49.937" x2="399.614" y2="49.937">
      <stop offset="0" stop-color="#4591ED"/>
      <stop offset="1" stop-color="#00C9FF"/>
    </linearGradient>
  </defs>
  <g id="influxdb_logo">
    <path d="M98.503,60.325 L88.991,18.773 C88.49,16.521 86.362,14.268 84.11,13.642 L40.43,0.25 C39.804,0.125 39.178,0 38.553,0 C36.675,0 34.673,0.751 33.546,1.877 L2.257,30.914 C0.63,32.416 -0.371,35.419 0.13,37.672 L10.267,82.103 C10.768,84.355 12.895,86.608 15.148,87.234 L55.949,99.75 C56.575,99.875 57.201,100 57.827,100 C59.704,100 61.707,99.249 62.833,98.123 L96.25,67.084 C98.127,65.582 99.003,62.578 98.503,60.325 z M44.936,10.013 L74.848,19.149 C75.974,19.524 75.974,20.025 74.848,20.275 L59.078,23.905 C57.827,24.155 56.2,23.655 55.449,22.778 L44.435,10.889 C43.559,10.138 43.809,9.762 44.936,10.013 z M63.584,63.705 C63.834,64.956 63.083,65.582 61.957,65.207 L29.666,55.319 C28.54,54.944 28.29,53.942 29.166,53.191 L53.947,30.163 C54.823,29.287 55.824,29.662 56.074,30.788 L63.584,63.705 z M10.392,34.418 L36.675,10.013 C37.551,9.136 38.928,9.262 39.804,10.138 L52.946,24.28 C53.822,25.156 53.697,26.533 52.82,27.409 L26.538,51.815 C25.661,52.691 24.285,52.566 23.409,51.69 L10.267,37.547 C9.516,36.671 9.516,35.294 10.392,34.418 z M16.775,73.217 L9.767,42.804 C9.516,41.552 9.892,41.427 10.768,42.303 L21.782,54.193 C22.658,55.069 23.033,56.821 22.658,57.947 L17.902,73.342 C17.651,74.343 17.026,74.343 16.775,73.217 z M55.198,90.864 L21.031,80.35 C19.904,79.975 19.153,78.723 19.529,77.597 L25.161,59.074 C25.536,57.947 26.788,57.197 27.914,57.572 L62.082,68.085 C63.208,68.461 63.959,69.712 63.584,70.839 L57.952,89.362 C57.576,90.613 56.325,91.239 55.198,90.864 z M85.611,65.957 L62.708,87.234 C61.832,88.11 61.331,87.735 61.707,86.608 L66.462,71.214 C66.838,70.088 68.089,68.836 69.341,68.586 L85.111,64.956 C86.237,64.706 86.487,65.207 85.611,65.957 z M88.115,61.452 L69.216,65.707 C67.964,65.957 66.838,65.207 66.588,64.08 L58.578,29.161 C58.327,27.91 59.078,26.783 60.205,26.533 L79.103,22.278 C80.355,22.028 81.481,22.778 81.732,23.905 L89.742,58.824 C89.992,59.95 89.241,61.202 88.115,61.452 z" fill="url(#Gradient_1)" id="symbol_2_"/>
  </g>
</svg>
