<?xml version="1.0" encoding="UTF-8"?>
<!DOCTYPE svg PUBLIC "-//W3C//DTD SVG 1.1//EN" "http://www.w3.org/Graphics/SVG/1.1/DTD/svg11.dtd">
<svg version="1.1" xmlns="http://www.w3.org/2000/svg" xmlns:xlink="http://www.w3.org/1999/xlink" x="0" y="0" width="172" height="172" viewBox="0, 0, 172, 172">
  <g id="Layer_1">
    <path d="M85.471,0 C93.224,0 100.114,5.473 100.114,12.212 C100.114,18.954 93.553,24.427 85.471,24.427 C84.547,24.427 83.34,24.273 81.849,23.972 C80.694,23.738 79.49,23.929 78.464,24.514 L25.966,54.393 C24.795,55.061 24.386,56.549 25.051,57.725 C25.27,58.11 25.59,58.428 25.978,58.646 L82.89,90.62 C84.369,91.451 86.17,91.454 87.652,90.632 L144.875,58.8 C146.052,58.144 146.477,56.657 145.821,55.48 C145.605,55.086 145.282,54.762 144.894,54.541 L127.039,44.398 C125.56,43.557 123.749,43.548 122.265,44.377 L103.415,54.836 C102.938,55.101 102.627,55.579 102.568,56.111 L102.559,56.293 C102.559,63.032 95.999,68.505 87.914,68.505 C79.832,68.505 73.271,63.032 73.271,56.293 C73.271,49.551 79.832,44.078 87.914,44.078 C88.215,44.078 88.56,44.096 88.949,44.127 L89.565,44.189 L90.251,44.275 C91.292,44.417 92.355,44.216 93.276,43.705 L121.15,28.234 C123.284,27.052 125.862,27.012 128.021,28.111 L128.314,28.271 L167.236,50.386 C172.118,53.158 172.173,60.128 167.442,63.008 L167.181,63.162 L141.142,77.644 C139.963,78.3 139.541,79.787 140.194,80.964 C140.425,81.38 140.773,81.719 141.191,81.94 L166.98,95.517 C172.099,98.209 172.222,105.502 167.196,108.367 L88.878,153.039 C86.629,154.32 83.87,154.32 81.621,153.039 L3.743,108.552 C-1.289,105.678 -1.151,98.369 3.987,95.689 L30.056,82.076 C31.251,81.454 31.716,79.981 31.094,78.783 C30.872,78.361 30.536,78.013 30.124,77.782 L3.74,62.961 C-1.141,60.22 -1.249,53.272 3.445,50.355 L3.703,50.201 L68.503,13.324 C69.529,12.739 70.305,11.806 70.696,10.697 L70.78,10.438 C73.053,3.659 78.23,0 85.471,0 z M121.63,89.967 L89.629,108.379 L89.337,108.539 C87.159,109.663 84.56,109.62 82.413,108.41 L50.516,90.413 C49.081,89.606 47.338,89.579 45.878,90.343 L27.49,99.964 C26.298,100.587 25.836,102.062 26.458,103.26 C26.674,103.676 27.004,104.018 27.41,104.252 L83.586,136.413 C85.08,137.269 86.913,137.273 88.41,136.413 L145.072,104.021 C146.243,103.352 146.646,101.862 145.981,100.688 C145.75,100.285 145.411,99.952 144.998,99.733 L126.318,89.877 C124.843,89.101 123.075,89.132 121.627,89.964 z" fill="#24A1C1"/>
  </g>
</svg>
